<?xml version="1.0" encoding="UTF-8" standalone="no"?>
<!-- Created with Inkscape (http://www.inkscape.org/) -->

<svg
   width="210mm"
   height="297mm"
   viewBox="0 0 210 297"
   version="1.1"
   id="svg1"
   xml:space="preserve"
   xmlns="http://www.w3.org/2000/svg"
   xmlns:svg="http://www.w3.org/2000/svg"><defs
     id="defs1" /><g
     id="layer1"><g
       transform="matrix(-7.6155869e-4,1.5352863e-4,1.5017091e-4,7.6425458e-4,88.979918,71.249565)"
       fill="#000000"
       stroke="none"
       id="g3"
       style="fill-rule:nonzero;stroke-width:0.952124;stroke-dasharray:none"><path
         d="m 9186,12779 c -28,-22 -678,-928 -1438,-2004 C 6046,8364 4869,6631 4233,5600 c -91,-148 -263,-442 -263,-450 0,-4 48,-24 108,-46 59,-21 190,-80 292,-131 267,-134 433,-241 688,-446 68,-54 125,-97 126,-95 9,10 107,177 193,328 656,1146 2013,3874 3700,7440 124,261 227,492 230,512 4,30 1,41 -20,62 -32,31 -65,33 -101,5 z"
         id="path1"
         style="fill-rule:nonzero;stroke-width:0.952124;stroke-dasharray:none" /><path
         d="m 3796,4802 c -154,-368 -309,-713 -623,-1387 -264,-566 -410,-893 -401,-900 2,-1 32,-8 68,-14 195,-38 431,-178 561,-335 28,-33 55,-62 60,-64 12,-5 199,242 580,768 400,552 642,878 839,1130 176,225 171,216 144,238 -12,9 -66,53 -120,98 -304,248 -652,449 -963,555 -47,16 -87,29 -90,29 -3,0 -28,-53 -55,-118 z"
         id="path2"
         style="fill-rule:nonzero;stroke-width:0.952124;stroke-dasharray:none" /><path
         d="m 2358,2395 c -270,-44 -509,-190 -680,-415 -62,-81 -140,-241 -167,-340 C 1419,1300 1373,1164 1291,996 1214,839 1127,717 1015,604 805,393 555,268 165,181 66,158 31,146 18,130 -8,98 -5,54 26,23 L 52,-3 534,3 c 264,4 560,11 656,17 1117,63 1758,256 2118,635 177,186 259,384 269,650 11,288 -65,511 -248,733 -126,153 -342,287 -544,338 -127,31 -303,40 -427,19 z"
         id="path3"
         style="fill-rule:nonzero;stroke-width:0.952124;stroke-dasharray:none" /></g><text
       xml:space="preserve"
       style="font-size:10.5833px;line-height:1.25;font-family:sans-serif;letter-spacing:0px;word-spacing:0px;stroke-width:0.264583"
       x="76.531441"
       y="80.955246"
       id="text1"><tspan
         id="tspan1"
         style="stroke-width:0.264583"
         x="76.531441"
         y="80.955246">G</tspan></text></g></svg>
